{
    "asset" : {
        "generator" : "Khronos glTF Blender I/O v1.8.19",
        "version" : "2.0"
    },
    "scene" : 0,
    "scenes" : [
        {
            "name" : "Scene",
            "nodes" : [
                0
            ]
        }
    ],
    "nodes" : [
        {
            "mesh" : 0,
            "name" : "\u6995\u681111"
        }
    ],
    "materials" : [
        {
            "doubleSided" : true,
            "name" : "AM113_063_Tilia_Bark",
            "pbrMetallicRoughness" : {
                "baseColorTexture" : {
                    "index" : 0
                },
                "metallicFactor" : 0,
                "roughnessFactor" : 0.7913385629653931
            }
        },
        {
            "alphaCutoff" : 0.5,
            "alphaMode" : "MASK",
            "doubleSided" : true,
            "name" : "AM113_063_Tilia",
            "pbrMetallicRoughness" : {
                "baseColorTexture" : {
                    "index" : 1
                },
                "metallicFactor" : 0,
                "roughnessFactor" : 0.8149605989456177
            }
        }
    ],
    "meshes" : [
        {
            "name" : "AM113_063_Tilia01",
            "primitives" : [
                {
                    "attributes" : {
                        "POSITION" : 0,
                        "NORMAL" : 1,
                        "TEXCOORD_0" : 2
                    },
                    "indices" : 3,
                    "material" : 0
                },
                {
                    "attributes" : {
                        "POSITION" : 4,
                        "NORMAL" : 5,
                        "TEXCOORD_0" : 6
                    },
                    "indices" : 7,
                    "material" : 1
                }
            ]
        }
    ],
    "textures" : [
        {
            "sampler" : 0,
            "source" : 0
        },
        {
            "sampler" : 0,
            "source" : 1
        }
    ],
    "images" : [
        {
            "bufferView" : 4,
            "mimeType" : "image/jpeg",
            "name" : "Image_0"
        },
        {
            "bufferView" : 9,
            "mimeType" : "image/png",
            "name" : "Image_1"
        }
    ],
    "accessors" : [
        {
            "bufferView" : 0,
            "componentType" : 5126,
            "count" : 213,
            "max" : [
                0.6958681344985962,
                4.455171585083008,
                0.6338242888450623
            ],
            "min" : [
                -0.4966163635253906,
                0,
                -0.5923767685890198
            ],
            "type" : "VEC3"
        },
        {
            "bufferView" : 1,
            "componentType" : 5126,
            "count" : 213,
            "type" : "VEC3"
        },
        {
            "bufferView" : 2,
            "componentType" : 5126,
            "count" : 213,
            "type" : "VEC2"
        },
        {
            "bufferView" : 3,
            "componentType" : 5123,
            "count" : 540,
            "type" : "SCALAR"
        },
        {
            "bufferView" : 5,
            "componentType" : 5126,
            "count" : 1242,
            "max" : [
                1.637336015701294,
                5.348117828369141,
                1.5548290014266968
            ],
            "min" : [
                -1.637336015701294,
                1.9300496578216553,
                -1.673650860786438
            ],
            "type" : "VEC3"
        },
        {
            "bufferView" : 6,
            "componentType" : 5126,
            "count" : 1242,
            "type" : "VEC3"
        },
        {
            "bufferView" : 7,
            "componentType" : 5126,
            "count" : 1242,
            "type" : "VEC2"
        },
        {
            "bufferView" : 8,
            "componentType" : 5123,
            "count" : 3483,
            "type" : "SCALAR"
        }
    ],
    "bufferViews" : [
        {
            "buffer" : 0,
            "byteLength" : 2556,
            "byteOffset" : 0
        },
        {
            "buffer" : 0,
            "byteLength" : 2556,
            "byteOffset" : 2556
        },
        {
            "buffer" : 0,
            "byteLength" : 1704,
            "byteOffset" : 5112
        },
        {
            "buffer" : 0,
            "byteLength" : 1080,
            "byteOffset" : 6816
        },
        {
            "buffer" : 0,
            "byteLength" : 87424,
            "byteOffset" : 7896
        },
        {
            "buffer" : 0,
            "byteLength" : 14904,
            "byteOffset" : 95320
        },
        {
            "buffer" : 0,
            "byteLength" : 14904,
            "byteOffset" : 110224
        },
        {
            "buffer" : 0,
            "byteLength" : 9936,
            "byteOffset" : 125128
        },
        {
            "buffer" : 0,
            "byteLength" : 6966,
            "byteOffset" : 135064
        },
        {
            "buffer" : 0,
            "byteLength" : 418973,
            "byteOffset" : 142032
        }
    ],
    "samplers" : [
        {
            "magFilter" : 9729,
            "minFilter" : 9987
        }
    ],
    "buffers" : [
        {
            "byteLength" : 561008,
            "uri" : "data:application/octet-stream;base64,"
        }
    ]
}
