{
    "asset" : {
        "generator" : "Khronos glTF Blender I/O v1.8.19",
        "version" : "2.0"
    },
    "scene" : 0,
    "scenes" : [
        {
            "name" : "Scene",
            "nodes" : [
                0
            ]
        }
    ],
    "nodes" : [
        {
            "mesh" : 0,
            "name" : "\u4f4f\u5b85\u697c40"
        }
    ],
    "materials" : [
        {
            "doubleSided" : true,
            "name" : "dfdfd\u4f4f\u5b85-39",
            "pbrMetallicRoughness" : {
                "baseColorFactor" : [
                    0.9254900217056274,
                    0.8274509906768799,
                    0.6588240265846252,
                    1
                ],
                "metallicFactor" : 0,
                "roughnessFactor" : 0.5
            }
        },
        {
            "doubleSided" : true,
            "name" : "3 - Default\u4f4f\u5b85-39",
            "pbrMetallicRoughness" : {
                "baseColorFactor" : [
                    0.6392160058021545,
                    0.5098040103912354,
                    0.4549019932746887,
                    1
                ],
                "metallicFactor" : 0,
                "roughnessFactor" : 0.5
            }
        },
        {
            "doubleSided" : true,
            "name" : "3 - Defaultgfgfg\u4f4f\u5b85-39",
            "pbrMetallicRoughness" : {
                "baseColorFactor" : [
                    0.7254899740219116,
                    0.7254899740219116,
                    0.7254899740219116,
                    1
                ],
                "metallicFactor" : 0,
                "roughnessFactor" : 0.5
            }
        },
        {
            "alphaMode" : "BLEND",
            "doubleSided" : true,
            "name" : "boli23\u4f4f\u5b85-39",
            "pbrMetallicRoughness" : {
                "baseColorFactor" : [
                    0.2901960015296936,
                    0.33333298563957214,
                    0.36470600962638855,
                    0.8110235929489136
                ],
                "metallicFactor" : 0,
                "roughnessFactor" : 0.5
            }
        },
        {
            "doubleSided" : true,
            "name" : "3 - Defaufddlt\u4f4f\u5b85-39",
            "pbrMetallicRoughness" : {
                "baseColorFactor" : [
                    0.8980389833450317,
                    0.8313729763031006,
                    0.7176470160484314,
                    1
                ],
                "metallicFactor" : 0,
                "roughnessFactor" : 0.5
            }
        }
    ],
    "meshes" : [
        {
            "name" : "Obj3d66-555102-32-60",
            "primitives" : [
                {
                    "attributes" : {
                        "POSITION" : 0,
                        "NORMAL" : 1,
                        "TEXCOORD_0" : 2
                    },
                    "indices" : 3,
                    "material" : 0
                },
                {
                    "attributes" : {
                        "POSITION" : 4,
                        "NORMAL" : 5,
                        "TEXCOORD_0" : 6
                    },
                    "indices" : 7,
                    "material" : 1
                },
                {
                    "attributes" : {
                        "POSITION" : 8,
                        "NORMAL" : 9,
                        "TEXCOORD_0" : 10
                    },
                    "indices" : 11,
                    "material" : 2
                },
                {
                    "attributes" : {
                        "POSITION" : 12,
                        "NORMAL" : 13,
                        "TEXCOORD_0" : 14
                    },
                    "indices" : 15,
                    "material" : 3
                },
                {
                    "attributes" : {
                        "POSITION" : 16,
                        "NORMAL" : 17,
                        "TEXCOORD_0" : 18
                    },
                    "indices" : 19,
                    "material" : 4
                }
            ]
        }
    ],
    "accessors" : [
        {
            "bufferView" : 0,
            "componentType" : 5126,
            "count" : 12336,
            "max" : [
                22.98390007019043,
                18.999961853027344,
                7.455537796020508
            ],
            "min" : [
                -22.97610092163086,
                1.089961051940918,
                -7.981115341186523
            ],
            "type" : "VEC3"
        },
        {
            "bufferView" : 1,
            "componentType" : 5126,
            "count" : 12336,
            "type" : "VEC3"
        },
        {
            "bufferView" : 2,
            "componentType" : 5126,
            "count" : 12336,
            "type" : "VEC2"
        },
        {
            "bufferView" : 3,
            "componentType" : 5123,
            "count" : 16440,
            "type" : "SCALAR"
        },
        {
            "bufferView" : 4,
            "componentType" : 5126,
            "count" : 5390,
            "max" : [
                22.92389488220215,
                19.89995574951172,
                5.765164852142334
            ],
            "min" : [
                -22.91609764099121,
                -4.38690185546875e-05,
                -7.981115341186523
            ],
            "type" : "VEC3"
        },
        {
            "bufferView" : 5,
            "componentType" : 5126,
            "count" : 5390,
            "type" : "VEC3"
        },
        {
            "bufferView" : 6,
            "componentType" : 5126,
            "count" : 5390,
            "type" : "VEC2"
        },
        {
            "bufferView" : 7,
            "componentType" : 5123,
            "count" : 7152,
            "type" : "SCALAR"
        },
        {
            "bufferView" : 8,
            "componentType" : 5126,
            "count" : 51423,
            "max" : [
                23.043901443481445,
                21.69995880126953,
                7.981114387512207
            ],
            "min" : [
                -23.03609848022461,
                -4.100799560546875e-05,
                -7.981111526489258
            ],
            "type" : "VEC3"
        },
        {
            "bufferView" : 9,
            "componentType" : 5126,
            "count" : 51423,
            "type" : "VEC3"
        },
        {
            "bufferView" : 10,
            "componentType" : 5126,
            "count" : 51423,
            "type" : "VEC2"
        },
        {
            "bufferView" : 11,
            "componentType" : 5123,
            "count" : 85224,
            "type" : "SCALAR"
        },
        {
            "bufferView" : 12,
            "componentType" : 5126,
            "count" : 2968,
            "max" : [
                22.923900604248047,
                18.219953536987305,
                7.350948333740234
            ],
            "min" : [
                -22.916095733642578,
                -4.100799560546875e-05,
                -7.874661445617676
            ],
            "type" : "VEC3"
        },
        {
            "bufferView" : 13,
            "componentType" : 5126,
            "count" : 2968,
            "type" : "VEC3"
        },
        {
            "bufferView" : 14,
            "componentType" : 5126,
            "count" : 2968,
            "type" : "VEC2"
        },
        {
            "bufferView" : 15,
            "componentType" : 5123,
            "count" : 3468,
            "type" : "SCALAR"
        },
        {
            "bufferView" : 16,
            "componentType" : 5126,
            "count" : 583,
            "max" : [
                22.923900604248047,
                13.520310401916504,
                7.350797653198242
            ],
            "min" : [
                -22.916101455688477,
                -4.291534423828125e-05,
                5.56109094619751
            ],
            "type" : "VEC3"
        },
        {
            "bufferView" : 17,
            "componentType" : 5126,
            "count" : 583,
            "type" : "VEC3"
        },
        {
            "bufferView" : 18,
            "componentType" : 5126,
            "count" : 583,
            "type" : "VEC2"
        },
        {
            "bufferView" : 19,
            "componentType" : 5123,
            "count" : 648,
            "type" : "SCALAR"
        }
    ],
    "bufferViews" : [
        {
            "buffer" : 0,
            "byteLength" : 148032,
            "byteOffset" : 0
        },
        {
            "buffer" : 0,
            "byteLength" : 148032,
            "byteOffset" : 148032
        },
        {
            "buffer" : 0,
            "byteLength" : 98688,
            "byteOffset" : 296064
        },
        {
            "buffer" : 0,
            "byteLength" : 32880,
            "byteOffset" : 394752
        },
        {
            "buffer" : 0,
            "byteLength" : 64680,
            "byteOffset" : 427632
        },
        {
            "buffer" : 0,
            "byteLength" : 64680,
            "byteOffset" : 492312
        },
        {
            "buffer" : 0,
            "byteLength" : 43120,
            "byteOffset" : 556992
        },
        {
            "buffer" : 0,
            "byteLength" : 14304,
            "byteOffset" : 600112
        },
        {
            "buffer" : 0,
            "byteLength" : 617076,
            "byteOffset" : 614416
        },
        {
            "buffer" : 0,
            "byteLength" : 617076,
            "byteOffset" : 1231492
        },
        {
            "buffer" : 0,
            "byteLength" : 411384,
            "byteOffset" : 1848568
        },
        {
            "buffer" : 0,
            "byteLength" : 170448,
            "byteOffset" : 2259952
        },
        {
            "buffer" : 0,
            "byteLength" : 35616,
            "byteOffset" : 2430400
        },
        {
            "buffer" : 0,
            "byteLength" : 35616,
            "byteOffset" : 2466016
        },
        {
            "buffer" : 0,
            "byteLength" : 23744,
            "byteOffset" : 2501632
        },
        {
            "buffer" : 0,
            "byteLength" : 6936,
            "byteOffset" : 2525376
        },
        {
            "buffer" : 0,
            "byteLength" : 6996,
            "byteOffset" : 2532312
        },
        {
            "buffer" : 0,
            "byteLength" : 6996,
            "byteOffset" : 2539308
        },
        {
            "buffer" : 0,
            "byteLength" : 4664,
            "byteOffset" : 2546304
        },
        {
            "buffer" : 0,
            "byteLength" : 1296,
            "byteOffset" : 2550968
        }
    ],
    "buffers" : [
        {
            "byteLength" : 2552264,
            "uri" : "data:application/octet-stream;base64,"
        }
    ]
}
